{"title":"Military Officer (Yuddha Bhoomi | Chiranjeevi) 1998 - Hindi Dubb","uid":12032440,"size":988442879,"categoryP":"video","categoryS":"movies","magnet":"?xt=urn:btih:e07408dfab4a0498e2bc81a12613a1126065e86a&amp;dn=Military+Officer+%28Yuddha+Bhoomi+%7C+Chiranjeevi%29+1998+-+Hindi+Dubb&amp;tr=udp%3A%2F%2Ftracker.openbittorrent.com%3A80&amp;tr=udp%3A%2F%2Fopen.demonii.com%3A1337&amp;tr=udp%3A%2F%2Ftracker.coppersurfer.tk%3A6969&amp;tr=udp%3A%2F%2Fexodus.desync.com%3A6969","seeders":1,"leechers":0,"uploader":"SS132203","files":2,"time":1434638999,"description":"Military Officer (Yuddha Bhoomi | Chiranjeevi) 1998 - Hindi Dubbed - 720p - WebHD - x264 - AAC -={SPARROW}=-\n &lt;a href=&quot;\nhttp://imgsparrow.co/image/Q6&quot; rel=&quot;nofollow&quot; target=&quot;_NEW&quot;&gt;\nhttp://imgsparrow.co/image/Q6&lt;/a&gt;\n &lt;a href=&quot;\nhttp://imgsparrow.co/image/Et&quot; rel=&quot;nofollow&quot; target=&quot;_NEW&quot;&gt;\nhttp://imgsparrow.co/image/Et&lt;/a&gt;\n\nInfo : - \n\nFormat                      : MPEG-4\nFormat profile              : Base Media / Version 2\nCodec ID                    : mp42\nFile size                   : 943 MiB\nDuration                    : 1h 59mn\nOverall bit rate mode       : Variable\nOverall bit rate            : 1 099 Kbps\nWriting application         : HandBrake 0.10.1 2015030800\n\nVideo\nID                          : 1\nFormat                      : AVC\nFormat/Info                 : Advanced Video Codec\nFormat profile              : &lt;a class=&quot;__cf_email__&quot; href=&quot;/cdn-cgi/l/email-protection&quot; data-cfemail=&quot;2f624e46416f631b011e&quot;&gt;[email&amp;#160;protected]&lt;/a&gt;&lt;script data-cfhash='f9e31' type=&quot;text/javascript&quot;&gt;\n/* &lt;![CDATA[ */!function(){try{var t=&quot;currentScript&quot;in document?document.currentScript:function(){for(var t=document.getElementsByTagName(&quot;script&quot;),e=t.length;e--;)if(t[e].getAttribute(&quot;data-cfhash&quot;))return t[e]}();if(t&amp;&amp;t.previousSibling){var e,r,n,i,c=t.previousSibling,a=c.getAttribute(&quot;data-cfemail&quot;);if(a){for(e=&quot;&quot;,r=parseInt(a.substr(0,2),16),n=2;a.length-n;n+=2)i=parseInt(a.substr(n,2),16)^r,e+=String.fromCharCode(i);e=document.createTextNode(e),c.parentNode.replaceChild(e,c)}t.parentNode.removeChild(t);}}catch(u){}}()/* ]]&gt; */&lt;/script&gt;\nFormat settings, CABAC      : Yes\nFormat settings, ReFrames   : 4 frames\nCodec ID                    : avc1\nCodec ID/Info               : Advanced Video Coding\nDuration                    : 1h 59mn\nBit rate                    : 900 Kbps\nWidth                       : 1 280 pixels\nHeight                      : 720 pixels\nDisplay aspect ratio        : 16:9\nFrame rate mode             : Constant\nFrame rate                  : 25.000 fps\nColor space                 : YUV\nChroma subsampling          : 4:2:0\nBit depth                   : 8 bits\nScan type                   : Progressive\nBits/(Pixel*Frame)          : 0.039\nStream size                 : 772 MiB (82%)\nWriting library             : x264 core 142 r2479 dd79a61\nColor range                 : Limited\nColor primaries             : BT.709\nTransfer characteristics    : BT.709\nMatrix coefficients         : BT.709\n\nAudio\nID                          : 2\nFormat                      : AAC\nFormat/Info                 : Advanced Audio Codec\nFormat profile              : LC\nCodec ID                    : 40\nDuration                    : 1h 59mn\nBit rate mode               : Variable\nBit rate                    : 192 Kbps\nChannel(s)                  : 2 channels\nChannel positions           : Front: L R\nSampling rate               : 48.0 KHz\nCompression mode            : Lossy\nStream size                 : 165 MiB (18%)\nTitle                       : Stereo / Stereo\nLanguage                    : Hindi\n\nScreens : - \n &lt;a href=&quot;\nhttp://imgsparrow.co/image/Q8&quot; rel=&quot;nofollow&quot; target=&quot;_NEW&quot;&gt;\nhttp://imgsparrow.co/image/Q8&lt;/a&gt; &lt;a href=&quot;\nhttp://imgsparrow.co/image/Q9&quot; rel=&quot;nofollow&quot; target=&quot;_NEW&quot;&gt;\nhttp://imgsparrow.co/image/Q9&lt;/a&gt; &lt;a href=&quot;\nhttp://imgsparrow.co/image/QL&quot; rel=&quot;nofollow&quot; target=&quot;_NEW&quot;&gt;\nhttp://imgsparrow.co/image/QL&lt;/a&gt; &lt;a href=&quot;\nhttp://imgsparrow.co/image/QN&quot; rel=&quot;nofollow&quot; target=&quot;_NEW&quot;&gt;\nhttp://imgsparrow.co/image/QN&lt;/a&gt; &lt;a href=&quot;\nhttp://imgsparrow.co/image/Qt&quot; rel=&quot;nofollow&quot; target=&quot;_NEW&quot;&gt;\nhttp://imgsparrow.co/image/Qt&lt;/a&gt; &lt;a href=&quot;\nhttp://imgsparrow.co/image/QE&quot; rel=&quot;nofollow&quot; target=&quot;_NEW&quot;&gt;\nhttp://imgsparrow.co/image/QE&lt;/a&gt; &lt;a href=&quot;\nhttp://imgsparrow.co/image/QJ&quot; rel=&quot;nofollow&quot; target=&quot;_NEW&quot;&gt;\nhttp://imgsparrow.co/image/QJ&lt;/a&gt; &lt;a href=&quot;\nhttp://imgsparrow.co/image/QU&quot; rel=&quot;nofollow&quot; target=&quot;_NEW&quot;&gt;\nhttp://imgsparrow.co/image/QU&lt;/a&gt; &lt;a href=&quot;\nhttp://imgsparrow.co/image/Qu&quot; rel=&quot;nofollow&quot; target=&quot;_NEW&quot;&gt;\nhttp://imgsparrow.co/image/Qu&lt;/a&gt; &lt;a href=&quot;\nhttp://imgsparrow.co/image/Qw&quot; rel=&quot;nofollow&quot; target=&quot;_NEW&quot;&gt;\nhttp://imgsparrow.co/image/Qw&lt;/a&gt;\n &lt;a href=&quot;\nhttp://imgsparrow.co/image/N2&quot; rel=&quot;nofollow&quot; target=&quot;_NEW&quot;&gt;\nhttp://imgsparrow.co/image/N2&lt;/a&gt;","torrent":{"xt":"urn:btih:e07408dfab4a0498e2bc81a12613a1126065e86a","amp;dn":"Military+Officer+%28Yuddha+Bhoomi+%7C+Chiranjeevi%29+1998+-+Hindi+Dubb","amp;tr":["udp%3A%2F%2Ftracker.openbittorrent.com%3A80","udp%3A%2F%2Fopen.demonii.com%3A1337","udp%3A%2F%2Ftracker.coppersurfer.tk%3A6969","udp%3A%2F%2Fexodus.desync.com%3A6969"],"infoHash":"e07408dfab4a0498e2bc81a12613a1126065e86a","infoHashBuffer":{"type":"Buffer","data":[224,116,8,223,171,74,4,152,226,188,129,161,38,19,161,18,96,101,232,106]},"announce":[],"urlList":[]}}